<svg xmlns="http://www.w3.org/2000/svg" xmlns:xlink="http://www.w3.org/1999/xlink" viewBox="0,0,256,256" width="48px" height="48px" fill-rule="nonzero"><g fill="none" fill-rule="nonzero" stroke="none" stroke-width="none" stroke-linecap="butt" stroke-linejoin="none" stroke-miterlimit="10" stroke-dasharray="" stroke-dashoffset="0" font-family="none" font-weight="none" font-size="none" text-anchor="none" style="mix-blend-mode: normal"><g transform="scale(5.33333,5.33333)"><path d="M42.788,47.832c1.124,0 2.035,-0.911 2.035,-2.035v-10.174l1.693,-1.129c0.849,-0.566 1.359,-1.519 1.359,-2.54v-7.066c0,-0.467 -0.379,-0.846 -0.846,-0.846h-2.342c-0.467,0 -0.846,0.379 -0.846,0.846v2.07h-4.105v-2.07c0,-0.467 -0.379,-0.846 -0.846,-0.846h-2.342c-0.467,0 -0.846,0.379 -0.846,0.846v2.07h-3.742v-9.363c0,-0.187 -0.052,-0.371 -0.149,-0.531l-4.941,-7.492c-0.397,-0.649 -1.34,-0.649 -1.736,0l-5.024,7.492c-0.098,0.16 -0.149,0.343 -0.149,0.531v9.363h-3.659v-2.07c0,-0.467 -0.379,-0.846 -0.846,-0.846h-2.342c-0.467,0 -0.846,0.379 -0.846,0.846v2.07h-4.108v-2.07c0,-0.467 -0.379,-0.846 -0.846,-0.846h-2.343c-0.467,0 -0.846,0.379 -0.846,0.846v7.066c0,1.021 0.51,1.974 1.359,2.54l1.693,1.129v10.174c0,1.124 0.911,2.035 2.035,2.035z" fill="#22c55e" stroke="none" stroke-width="1" stroke-linejoin="miter"></path><path d="M2.5,21.5h16" fill="none" stroke="#18193f" stroke-width="3" stroke-linejoin="round"></path><path d="M29.5,12.5h-11" fill="none" stroke="#18193f" stroke-width="3" stroke-linejoin="round"></path><path d="M45.5,21.5h-16" fill="none" stroke="#18193f" stroke-width="3" stroke-linejoin="round"></path><path d="M24,30.5c3.038,0 5.5,2.462 5.5,5.5v6.5h11c1.105,0 2,-0.895 2,-2v-10l1.664,-1.109c0.835,-0.556 1.336,-1.493 1.336,-2.496v-8.395h-2v3h-6v-3h-2v3h-6v-8.719c0,-0.184 -0.051,-0.364 -0.147,-0.521l-4.5,-7.364c-0.39,-0.638 -1.317,-0.638 -1.707,0l-4.5,7.364c-0.096,0.157 -0.147,0.337 -0.147,0.521v8.719h-6v-3h-2v3h-6v-3h-2v8.394c0,1.003 0.501,1.94 1.336,2.496l1.665,1.11v10c0,1.105 0.895,2 2,2h11v-6.5c0,-3.038 2.462,-5.5 5.5,-5.5" fill="none" stroke="#18193f" stroke-width="3" stroke-linejoin="round"></path><path d="M12,30c-1.105,0 -2,0.895 -2,2v5c0,0.552 0.448,1 1,1h2c0.552,0 1,-0.448 1,-1v-5c0,-1.105 -0.895,-2 -2,-2z" fill="#18193f" stroke="none" stroke-width="1" stroke-linejoin="miter"></path><path d="M36,30c1.105,0 2,0.895 2,2v5c0,0.552 -0.448,1 -1,1h-2c-0.552,0 -1,-0.448 -1,-1v-5c0,-1.105 0.895,-2 2,-2z" fill="#18193f" stroke="none" stroke-width="1" stroke-linejoin="miter"></path><path d="M17.5,42.5h15" fill="none" stroke="#18193f" stroke-width="3" stroke-linejoin="round"></path></g></g></svg>