<?xml version="1.0" standalone="no"?>
<!DOCTYPE svg PUBLIC "-//W3C//DTD SVG 20010904//EN"
 "http://www.w3.org/TR/2001/REC-SVG-20010904/DTD/svg10.dtd">
<svg version="1.0" xmlns="http://www.w3.org/2000/svg"
 width="300.000000pt" height="300.000000pt" viewBox="0 0 300.000000 300.000000"
 preserveAspectRatio="xMidYMid meet">
<metadata>
Created by potrace 1.14, written by Peter Selinger 2001-2017
</metadata>
<g transform="translate(0.000000,300.000000) scale(0.100000,-0.100000)"
fill="#000000" stroke="none">
<path d="M1222 2940 c-12 -12 -22 -30 -22 -41 0 -10 -5 -28 -12 -38 -10 -17
-6 -28 31 -80 23 -34 41 -68 39 -77 -2 -9 -20 -23 -41 -31 -38 -16 -39 -15
-71 16 -19 18 -42 31 -57 31 -31 0 -64 -33 -55 -55 3 -10 -1 -18 -12 -22 -9
-4 -29 -15 -44 -26 -17 -12 -35 -18 -49 -14 -12 3 -31 1 -42 -4 -16 -9 -25 -5
-51 20 -18 17 -40 31 -50 31 -10 0 -47 -17 -83 -37 -65 -36 -67 -36 -96 -20
-22 13 -33 15 -43 6 -11 -9 -18 -8 -28 1 -8 6 -23 10 -33 9 -10 -1 -31 1 -46
6 -23 6 -33 3 -56 -19 l-27 -26 28 -58 c29 -60 33 -86 19 -124 -11 -28 3 -68
24 -68 19 0 19 -14 0 -34 -8 -8 -15 -29 -15 -47 0 -39 55 -96 132 -135 l50
-26 -5 -42 c-4 -30 -2 -49 9 -65 18 -25 12 -51 -10 -51 -18 0 -46 -38 -46 -62
0 -9 22 -43 49 -76 27 -32 58 -77 70 -100 12 -23 26 -42 31 -42 6 0 10 -13 10
-28 0 -20 11 -39 35 -61 26 -23 35 -40 35 -63 0 -18 11 -48 24 -67 14 -20 32
-65 41 -101 9 -37 29 -81 46 -102 16 -20 29 -43 29 -50 0 -7 7 -22 15 -32 8
-11 15 -28 15 -38 0 -11 7 -33 16 -50 15 -30 15 -34 -1 -65 -17 -31 -17 -34 4
-83 17 -40 19 -54 10 -71 -27 -52 -28 -78 -4 -133 13 -29 35 -63 50 -74 14
-12 31 -38 37 -59 9 -32 8 -39 -7 -48 -10 -5 -27 -18 -39 -27 l-21 -16 21 -29
c11 -15 35 -34 52 -42 18 -8 34 -22 37 -30 10 -36 8 -131 -4 -145 -17 -20 12
-111 40 -129 10 -6 19 -17 19 -23 0 -20 38 -45 71 -46 44 -1 75 36 84 101 4
28 16 62 27 76 19 25 19 25 -1 51 -12 15 -21 33 -21 41 0 8 -10 32 -22 53 -19
32 -20 42 -10 52 9 9 17 10 30 2 10 -7 62 -10 131 -8 l114 3 34 -34 c18 -18
33 -42 33 -54 0 -12 6 -21 13 -21 24 0 78 47 107 93 38 60 65 77 122 77 50 0
110 -25 161 -67 16 -13 39 -23 52 -23 13 0 27 -4 30 -10 10 -16 98 -12 124 6
17 12 36 15 71 11 54 -7 60 -2 81 55 10 29 10 43 1 62 -8 18 -8 34 -2 52 11
29 -12 127 -36 155 -20 23 -18 33 17 70 22 23 29 38 24 53 -15 48 -18 69 -8
63 14 -9 99 47 113 74 9 17 9 35 0 80 -16 74 -9 100 43 156 45 49 48 61 48
196 0 69 -12 107 -34 107 -7 1 -23 18 -36 38 -22 35 -23 38 -7 65 9 16 16 41
16 57 0 16 6 30 12 32 10 4 10 10 1 30 -9 21 -9 38 2 80 15 55 17 186 3 194
-4 3 -8 25 -8 50 0 35 -5 49 -25 66 -14 12 -25 26 -25 31 0 5 -16 42 -35 83
-19 40 -35 81 -35 90 0 37 -34 85 -86 119 -43 29 -56 44 -64 75 -14 53 -43 70
-129 76 -57 4 -71 2 -71 -9 0 -8 -7 -20 -15 -27 -12 -10 -20 -7 -46 14 -17 14
-48 29 -70 32 -22 4 -42 11 -45 15 -8 14 -34 10 -40 -5 -3 -8 2 -30 11 -50 28
-58 -4 -93 -58 -65 -29 16 -37 28 -37 60 0 22 -8 30 -40 43 -22 9 -50 16 -61
16 -20 0 -20 5 -17 106 2 87 0 108 -12 114 -30 16 -100 33 -107 26 -4 -4 -9
-36 -11 -71 -2 -36 -8 -65 -13 -65 -5 0 -9 5 -9 10 0 12 -79 100 -90 100 -4 0
-26 17 -48 38 -111 102 -115 104 -150 72z m70 -50 c6 0 61 -52 123 -115 133
-136 154 -139 155 -25 0 48 14 68 37 54 16 -10 18 -25 15 -110 -1 -55 1 -105
6 -111 4 -7 32 -16 62 -20 51 -8 55 -10 61 -42 7 -36 48 -76 88 -86 13 -3 27
-2 30 2 3 5 18 16 33 26 21 13 28 26 30 59 3 47 18 57 43 31 25 -25 68 -53 82
-53 6 0 25 12 42 26 l31 26 50 -17 c40 -13 53 -23 64 -50 8 -18 32 -47 55 -65
46 -38 81 -90 81 -123 0 -12 16 -45 35 -74 28 -42 33 -57 28 -87 -5 -33 -3
-37 31 -57 30 -18 36 -26 32 -44 -4 -14 0 -28 10 -36 11 -9 14 -22 9 -47 -5
-25 -2 -39 11 -53 18 -20 13 -46 -23 -112 -9 -17 -12 -39 -8 -56 4 -18 1 -32
-7 -39 -21 -17 -16 -152 5 -164 10 -5 17 -18 17 -29 0 -12 10 -23 25 -29 27
-10 30 -21 15 -50 -7 -14 -6 -23 5 -34 23 -23 18 -55 -10 -68 -15 -7 -25 -19
-25 -33 0 -11 -11 -36 -25 -55 -43 -59 -59 -159 -33 -216 11 -23 10 -28 -12
-46 -13 -10 -37 -22 -53 -25 -35 -7 -51 -43 -43 -95 6 -36 4 -39 -33 -57 l-38
-20 16 -48 c9 -26 24 -59 34 -73 13 -19 17 -46 17 -130 l0 -106 -32 4 c-18 2
-61 -6 -96 -17 -58 -19 -66 -19 -92 -6 -16 8 -35 15 -43 15 -8 0 -20 7 -27 15
-24 29 -132 75 -178 75 -36 0 -45 4 -49 21 -10 38 -45 19 -65 -35 -9 -27 -31
-62 -48 -79 -16 -16 -30 -33 -30 -38 0 -5 -9 -9 -21 -9 -14 0 -24 10 -32 30
-16 43 -54 53 -202 56 -72 2 -143 7 -157 13 -20 8 -28 7 -32 -5 -7 -17 9 -107
25 -135 6 -12 8 -32 4 -46 -4 -19 -1 -26 15 -30 25 -7 25 -15 1 -37 -14 -13
-18 -26 -14 -50 4 -25 -1 -39 -20 -62 l-25 -29 -31 30 c-40 37 -50 80 -46 179
5 101 -11 138 -67 163 l-40 18 23 18 c18 14 24 31 27 78 4 57 3 60 -35 102
-21 23 -47 63 -57 89 -16 44 -16 49 -2 70 18 25 21 64 6 73 -13 8 -13 81 0
106 8 14 7 27 -5 48 -8 17 -15 43 -15 58 -1 37 -31 102 -74 159 -20 26 -36 57
-36 70 0 12 -13 51 -30 86 -16 34 -30 74 -30 88 0 28 -23 67 -52 88 -10 7 -18
19 -18 27 0 28 -54 119 -107 182 -54 63 -54 65 -34 79 51 36 62 64 41 104 -7
14 -6 31 7 61 19 49 20 48 -77 100 -30 16 -73 45 -95 63 l-40 34 21 24 c12 12
24 28 28 35 9 16 -4 43 -20 43 -22 0 -26 23 -10 60 15 36 16 32 -28 134 -19
44 -15 54 17 38 12 -6 63 -14 112 -17 87 -5 92 -5 139 24 l50 29 48 -25 c69
-36 127 -41 178 -14 22 11 49 21 60 21 27 0 40 28 28 62 -12 33 -6 43 17 35 9
-4 15 -19 15 -37 0 -23 6 -33 24 -40 45 -17 149 29 165 72 8 23 -2 77 -16 87
-5 3 -17 24 -29 46 -16 31 -18 45 -10 63 6 12 17 20 24 17 8 -3 18 -5 24 -5z"/>
</g>
</svg>
