<svg xmlns="http://www.w3.org/2000/svg" xmlns:xlink="http://www.w3.org/1999/xlink" viewBox="0,0,256,256" width="48px" height="48px" fill-rule="nonzero"><g fill="none" fill-rule="nonzero" stroke="none" stroke-width="none" stroke-linecap="none" stroke-linejoin="none" stroke-miterlimit="10" stroke-dasharray="" stroke-dashoffset="0" font-family="none" font-weight="none" font-size="none" text-anchor="none" style="mix-blend-mode: normal"><g transform="scale(5.33333,5.33333)"><path d="M12,34.539v10.453c0,1.105 0.895,2 2,2h8.355c0.552,0 1,-0.448 1,-1v-4.458c0,-2.422 1.759,-4.596 4.169,-4.84c2.766,-0.28 5.122,1.909 5.122,4.621v4.677c0,0.552 0.448,1 1,1h8.354c1.105,0 2,-0.895 2,-2v-10.435c0,-0.724 -0.391,-1.392 -1.023,-1.745l-6.018,-3.368v-7.158c0,-0.685 -0.351,-1.323 -0.929,-1.689l-6.97,-4.417c-0.648,-0.41 -1.473,-0.415 -2.124,-0.011l-6.91,4.283c-0.588,0.365 -0.946,1.008 -0.946,1.7v7.145l-6.08,3.51c-0.619,0.358 -1,1.018 -1,1.732z" fill="#22c55e" stroke="none" stroke-width="1" stroke-linecap="butt" stroke-linejoin="miter"></path><path d="M24,3.5v8.5l-8.5,5.5v8l-11,6" fill="none" stroke="#18193f" stroke-width="3" stroke-linecap="round" stroke-linejoin="round"></path><path d="M32.5,25.5l11,6" fill="none" stroke="#18193f" stroke-width="3" stroke-linecap="round" stroke-linejoin="round"></path><path d="M24,12l8.5,5.5v2.968" fill="none" stroke="#18193f" stroke-width="3" stroke-linecap="round" stroke-linejoin="round"></path><path d="M20.5,6.5h7" fill="none" stroke="#18193f" stroke-width="3" stroke-linecap="round" stroke-linejoin="round"></path><path d="M19.5,42.5v-5.288c0,-2.347 1.704,-4.453 4.038,-4.689c2.68,-0.27 4.962,1.85 4.962,4.477v5.5h9c1.105,0 2,-0.895 2,-2v-11.182" fill="none" stroke="#18193f" stroke-width="3" stroke-linecap="round" stroke-linejoin="round"></path><path d="M8.5,29.318v11.182c0,1.105 0.895,2 2,2h4.234" fill="none" stroke="#18193f" stroke-width="3" stroke-linecap="round" stroke-linejoin="round"></path><path d="M23,27c-0.552,0 -1,-0.448 -1,-1v-4c0,-1.1 0.9,-2 2,-2v0c1.1,0 2,0.9 2,2v4c0,0.552 -0.448,1 -1,1z" fill="#18193f" stroke="none" stroke-width="1" stroke-linecap="butt" stroke-linejoin="miter"></path></g></g></svg>