<svg xmlns="http://www.w3.org/2000/svg" xmlns:xlink="http://www.w3.org/1999/xlink" viewBox="0,0,256,256" width="48px" height="48px" fill-rule="nonzero"><g fill="none" fill-rule="nonzero" stroke="none" stroke-width="none" stroke-linecap="none" stroke-linejoin="none" stroke-miterlimit="10" stroke-dasharray="" stroke-dashoffset="0" font-family="none" font-weight="none" font-size="none" text-anchor="none" style="mix-blend-mode: normal"><g transform="scale(5.33333,5.33333)"><path d="M43.129,43h-30.258c-2.138,0 -3.871,-1.733 -3.871,-3.871v-22.258c0,-2.138 1.733,-3.871 3.871,-3.871h30.258c2.138,0 3.871,1.733 3.871,3.871v22.258c0,2.138 -1.733,3.871 -3.871,3.871z" fill="#22c55e" stroke="none" stroke-width="1" stroke-linecap="butt" stroke-linejoin="miter"></path><path d="M28.894,39.5h-20.394c-2.209,0 -4,-1.791 -4,-4v-23c0,-2.209 1.791,-4 4,-4h3" fill="none" stroke="#18193f" stroke-width="3" stroke-linecap="round" stroke-linejoin="round"></path><path d="M18.043,8.5h21.457c2.209,0 4,1.791 4,4v23c0,2.209 -1.791,4 -4,4h-3.713" fill="none" stroke="#18193f" stroke-width="3" stroke-linecap="round" stroke-linejoin="round"></path><path d="M24,8.5v31" fill="none" stroke="#18193f" stroke-width="3" stroke-linecap="round" stroke-linejoin="round"></path><circle cx="24" cy="24" r="6.5" fill="none" stroke="#18193f" stroke-width="3" stroke-linecap="round" stroke-linejoin="round"></circle><path d="M6.5,18.5h3c1.105,0 2,0.895 2,2v7c0,1.105 -0.895,2 -2,2h-3" fill="none" stroke="#18193f" stroke-width="3" stroke-linecap="round" stroke-linejoin="round"></path><path d="M43.5,29.5h-5c-1.105,0 -2,-0.895 -2,-2v-7c0,-1.105 0.895,-2 2,-2h5" fill="none" stroke="#18193f" stroke-width="3" stroke-linecap="round" stroke-linejoin="round"></path></g></g></svg>