<svg enable-background="new 0 0 2906.075 818.663" height="819" viewBox="0 0 2906.075 818.663" width="2907" xmlns="http://www.w3.org/2000/svg"><path d="m2763.156 46.6s-196.13 109.08-725.77 687.61c-207.1 226.21-2462.28-50.58-1966.32-261.56 0 0 1103.96-356.97 1927.96-438.97 71.75-10.42 252.33-15.14 428.79-11.08 26.65.61 53.21 1.42 79.28 2.45 99.64 3.9 192.23 10.89 256.06 21.55z" fill="#727272"/><path d="m1999.026 33.675s-1028.91 151.96-1927.96 438.98c-123.91-1.28 66.93-214.05 635.91-345.25l.01-.01c1.71-.39 3.45-.8 5.21-1.2 220.99-50.55 498.6-88.78 836.48-97.69h.02c132.55-3.5 274.37-2.48 425.69 4.06 8.19.35 16.4.72 24.64 1.11z" fill="#97c48b"/><path d="m2472.026 542.635c-296 243.04-422.9 233.74-434.64 191.57 31.53-72.74 401.46-448.66 628.59-621.62.01-.01.01-.01.01-.01v-.01c36.83-28.05 69.9-50.76 97.17-65.97 0 0 77.07-40.9 122.55-6.52 105.32 79.6-222.68 731.6-413.68 502.56z" fill="#97c48b"/><path d="m1984.026 35.675c-697 69-963.13 146.21-994 139-30.56-7.14 25.5-60.9 27-62-4.42 1.07-584.12 149.98-581 120 3.13-30.08 270.95-105.27 270.95-105.27l.01-.01c1.71-.39 3.45-.8 5.21-1.2 220.99-50.55 501.973-113.788 839.83-123.52 486-14 453.346 31.435 432 33z" fill="#aee0a0"/><path d="m2763.156 271.425c-39.87-.26 43.87-207.75-29.77-112.52s-330.36 304.77-312.45 245.14c17.84-59.4 243.28-289.66 245.04-291.46.01-.01.01-.01.01-.01v-.01c36.83-28.05 69.9-50.76 97.17-65.97 0 0 77.07-40.9 122.55-6.52 33.679 60.39-82.68 231.6-122.55 231.35z" fill="#aee0a0"/><path d="m2427.816 22.6c-38.89 11.8-78.73 24.19-119.29 37.12 0 0 10.5 5.96 32.28 15.99 57.19-18.06 112.83-35.01 166.29-50.66-26.07-1.03-52.63-1.84-79.28-2.45zm-401.44 131.41c-74.08 25.8-151.3 53.44-229.92 82.3 0 0 14.57 6.37 32.28 14.8 79.21-28.93 156.79-56.54 230.96-82.2 0-0-22.67-10.23-33.32-14.9zm-505.31 186.09c-75.05 28.98-152.34 59.36-230.08 90.43 0 0 11.04 4.15 30.68 14.68 78-31.09 155.39-61.4 230.34-90.24 0 0-16.98-8.29-30.94-14.87zm-504.04 202c-75.3 31.22-151.37 63.2-226.49 95.22 0 0 18.49 7.36 32.74 13.23 75.29-32 151.36-63.89 226.47-94.93 0-0-22.72-9.94-32.72-13.52z" fill="#fff"/></svg>